<svg width="211" height="298" viewBox="0 0 211 298" fill="none" xmlns="http://www.w3.org/2000/svg">
<path d="M105.372 296.791L19.5028 272.953L0.366943 58.3267H210.633L191.478 272.92L105.372 296.791Z" fill="#264DE4"/>
<path d="M175.078 259.255L191.447 75.875H105.5V278.545L175.078 259.255Z" fill="#2965F1"/>
<path d="M44.235 155.478L46.594 181.801H105.5V155.478H44.235ZM39.4941 102.199L41.8868 128.522H105.5V102.199H39.4941ZM105.5 223.842L105.385 223.872L76.0689 215.956L74.1946 194.963H47.7701L51.4577 236.294L105.379 251.262L105.5 251.229V223.842Z" fill="#EBEBEB"/>
<path d="M49.8521 0H81.7328V13.3326H63.1846V26.6651H81.7345V39.9969H49.8521V0ZM88.1098 0H119.991V11.5935H101.442V13.912H119.991V40.5771H88.1106V28.4026H106.66V26.0841H88.109L88.1098 0ZM126.368 0H158.25V11.5935H139.701V13.912H158.25V40.5771H126.368V28.4026H144.917V26.0841H126.369V0H126.368Z" fill="black"/>
<path d="M166.597 155.478L171.348 102.199H105.409V128.522H142.501L140.106 155.478H105.409V181.801H137.823L134.767 215.94L105.408 223.864V251.249L159.373 236.294L159.768 231.846L165.955 162.546L166.597 155.478Z" fill="white"/>
</svg>
