<svg width="200" height="200" viewBox="0 0 200 200" fill="none" xmlns="http://www.w3.org/2000/svg">
<path d="M2.19995 2.19995H197.8V197.802H2.19995V2.19995Z" fill="#F0DB4F"/>
<path d="M181.792 151.15C180.359 142.227 174.541 134.731 157.305 127.742C151.317 124.991 144.642 123.02 142.653 118.483C141.947 115.842 141.853 114.355 142.3 112.756C143.583 107.569 149.775 105.952 154.683 107.439C157.844 108.499 160.836 110.934 162.641 114.82C171.081 109.355 171.064 109.391 176.958 105.634C174.8 102.289 173.648 100.745 172.236 99.3142C167.159 93.6439 160.242 90.7235 149.18 90.947L143.417 91.6923C137.895 93.0876 132.633 95.986 129.547 99.872C120.288 110.378 122.928 128.766 134.195 136.333C145.295 144.664 161.602 146.559 163.684 154.35C165.711 163.888 156.675 166.975 147.694 165.878C141.075 164.502 137.394 161.138 133.414 155.02C126.089 159.259 126.089 159.259 118.558 163.591C120.344 167.495 122.22 169.263 125.214 172.645C139.383 187.017 174.839 186.311 181.198 164.558C181.456 163.811 183.169 158.83 181.792 151.15ZM108.534 92.0985H90.2391L90.1641 139.399C90.1641 149.458 90.6844 158.68 89.0484 161.506C86.3719 167.066 79.4359 166.377 76.275 165.299C73.0578 163.717 71.4219 161.469 69.5266 158.291C69.0063 157.378 68.6156 156.672 68.4844 156.617L53.6094 165.727C56.0828 170.803 59.7266 175.209 64.3938 178.072C71.3656 182.256 80.7359 183.539 90.5359 181.289C96.9141 179.431 102.417 175.583 105.298 169.725C109.464 162.045 108.57 152.75 108.533 142.469C108.627 125.695 108.534 108.925 108.534 92.0985Z" fill="#323330"/>
</svg>
