<svg width="200" height="132" viewBox="0 0 200 132" fill="none" xmlns="http://www.w3.org/2000/svg">
<path d="M100 0C73.3328 0 56.6719 14.6617 50 43.9971C59.9969 29.3337 71.6672 23.8351 84.9969 27.5014C92.6078 29.5881 98.0469 35.659 104.07 42.3866C113.873 53.3304 125.22 66 150 66C176.666 66 193.328 51.3366 200 21.9943C190.002 36.6663 178.333 42.1649 165.002 38.4986C157.392 36.4102 151.959 30.341 145.928 23.6134C136.131 12.6696 124.787 0 100 0ZM50 66C23.3344 66 6.67187 80.6634 0 110.006C9.99687 95.3337 21.6656 89.8351 34.9969 93.5014C42.6078 95.5898 48.0469 101.659 54.0703 108.387C63.8734 119.33 75.2203 132 100 132C126.666 132 143.328 117.338 150 88.0029C140.002 102.666 128.333 108.165 115.002 104.499C107.392 102.412 101.959 96.341 95.9281 89.6134C86.1312 78.6696 74.7875 66 50 66Z" fill="#38BDF8"/>
</svg>
