<svg width="200" height="200" viewBox="0 0 200 200" fill="none" xmlns="http://www.w3.org/2000/svg">
<g clip-path="url(#clip0_8_71)">
<path d="M199.716 99.7523C199.716 154.841 155.056 199.502 99.9641 199.502C44.8703 199.502 0.210938 154.841 0.210938 99.7523C0.210938 44.6602 44.8719 0 99.9641 0C155.057 0 199.716 44.6602 199.716 99.7523Z" fill="#DD4814"/>
<path d="M32.1351 86.4321C24.7765 86.4321 18.8148 92.3938 18.8148 99.7524C18.8148 107.107 24.7765 113.07 32.1351 113.07C39.4906 113.07 45.4523 107.107 45.4523 99.7524C45.4523 92.3938 39.4906 86.4321 32.1351 86.4321ZM127.225 146.962C120.855 150.641 118.67 158.782 122.35 165.149C126.026 171.519 134.166 173.702 140.537 170.024C146.906 166.348 149.091 158.207 145.412 151.836C141.736 145.47 133.591 143.287 127.225 146.962ZM61.064 99.7524C61.064 86.5915 67.6015 74.9634 77.6039 67.9227L67.8672 51.6149C56.2156 59.404 47.5453 71.3055 43.9422 85.2454C48.1468 88.6751 50.8375 93.8977 50.8375 99.7516C50.8375 105.602 48.1468 110.825 43.9422 114.256C47.5406 128.199 56.2109 140.102 67.8672 147.891L77.6039 131.578C67.6015 124.541 61.064 112.914 61.064 99.7524ZM99.964 60.8485C120.287 60.8485 136.96 76.4298 138.71 96.3016L157.687 96.0219C156.754 81.3516 150.344 68.1813 140.498 58.4969C135.434 60.4102 129.584 60.1173 124.529 57.2032C119.464 54.2805 116.288 49.3501 115.42 43.9985C110.386 42.6053 105.187 41.8984 99.9633 41.8969C91.0692 41.8879 82.2938 43.9369 74.3234 47.8837L83.5773 64.4673C88.7096 62.0784 94.303 60.8432 99.964 60.8485ZM99.964 138.653C94.3033 138.658 88.7102 137.423 83.5781 135.034L74.3242 151.616C82.2935 155.568 91.0698 157.619 99.9648 157.609C105.188 157.608 110.388 156.899 115.421 155.502C116.289 150.151 119.466 145.225 124.529 142.298C129.588 139.378 135.434 139.091 140.498 141.004C150.345 131.32 156.754 118.149 157.688 103.479L138.706 103.199C136.96 123.077 120.287 138.653 99.964 138.653ZM127.22 52.5352C133.591 56.2134 141.732 54.0352 145.407 47.6649C149.087 41.2946 146.907 33.1532 140.537 29.4735C134.166 25.7985 126.026 27.9813 122.345 34.3516C118.671 40.7188 120.855 48.8594 127.22 52.5352Z" fill="white"/>
</g>
<defs>
<clipPath id="clip0_8_71">
<rect width="200" height="200" fill="white"/>
</clipPath>
</defs>
</svg>
