<svg width="200" height="200" viewBox="0 0 200 200" fill="none" xmlns="http://www.w3.org/2000/svg">
<path d="M199.088 29.602L105.256 197.389C103.318 200.854 98.3412 200.874 96.3752 197.427L0.682196 29.617C-1.4598 25.861 1.75219 21.311 6.01019 22.072L99.9422 38.862C100.542 38.9688 101.155 38.9675 101.754 38.858L193.722 22.095C197.965 21.322 201.192 25.837 199.088 29.602Z" fill="url(#paint0_linear_6_56)"/>
<path d="M144.687 0.0500463L75.2491 13.655C74.6942 13.7635 74.1911 14.0535 73.819 14.4793C73.447 14.9051 73.2271 15.4426 73.1941 16.007L68.9221 88.148C68.8988 88.5436 68.968 88.9391 69.1241 89.3032C69.2803 89.6673 69.5192 89.99 69.8218 90.2458C70.1244 90.5015 70.4824 90.6832 70.8675 90.7765C71.2526 90.8697 71.6541 90.872 72.0401 90.783L91.3731 86.322C93.1821 85.905 94.8161 87.498 94.4451 89.317L88.7011 117.443C88.3141 119.336 90.0922 120.954 91.9402 120.393L103.881 116.765C105.732 116.203 107.511 117.826 107.119 119.721L97.9911 163.9C97.4201 166.664 101.096 168.171 102.629 165.801L103.653 164.219L160.235 51.299C161.183 49.409 159.549 47.253 157.472 47.653L137.573 51.494C135.703 51.854 134.112 50.113 134.639 48.284L147.628 3.25805C148.156 1.42605 146.559 -0.315954 144.687 0.0500463Z" fill="url(#paint1_linear_6_56)"/>
<defs>
<linearGradient id="paint0_linear_6_56" x1="-1.6538" y1="16.075" x2="115.127" y2="174.673" gradientUnits="userSpaceOnUse">
<stop stop-color="#41D1FF"/>
<stop offset="1" stop-color="#BD34FE"/>
</linearGradient>
<linearGradient id="paint1_linear_6_56" x1="94.5512" y1="3.74305" x2="115.676" y2="148.66" gradientUnits="userSpaceOnUse">
<stop stop-color="#FFEA83"/>
<stop offset="0.083" stop-color="#FFDD35"/>
<stop offset="1" stop-color="#FFA800"/>
</linearGradient>
</defs>
</svg>
